<svg width="58" height="71" viewBox="0 0 58 71" fill="none" xmlns="http://www.w3.org/2000/svg">
<path d="M55.3213 24.3013C52.128 26.8479 50.1313 29.3346 49.3313 31.7613C46.6113 40.0146 49.0213 46.6012 56.5613 51.5212C57.268 51.9812 57.4747 52.6079 57.1814 53.4013C55.2614 58.5479 52.3913 63.1612 48.5713 67.2412C45.338 70.6879 41.618 71.5079 37.4114 69.7013C32.5514 67.6213 27.6414 67.6546 22.6814 69.8013C19.6481 71.1079 16.8781 70.9746 14.3714 69.4013C12.6114 68.3013 10.5347 66.0713 8.14134 62.7113C3.58134 56.3112 0.901366 48.9746 0.101366 40.7013C-0.191968 37.6679 0.151334 34.3379 1.13133 30.7113C2.28467 26.4379 4.578 23.0446 8.01134 20.5313C11.5247 17.9579 15.438 16.9213 19.7513 17.4213C20.778 17.5413 22.3347 18.0346 24.4214 18.9013C26.5347 19.7746 28.0914 20.2546 29.0914 20.3413C29.7114 20.3946 30.3147 20.3113 30.9014 20.0913C31.288 19.9446 31.888 19.7113 32.7013 19.3913C36.008 18.0713 38.528 17.3313 40.2613 17.1713C46.4613 16.5979 51.508 18.7213 55.4014 23.5413C55.628 23.8213 55.6013 24.0746 55.3213 24.3013Z" fill="#F81919"/>
<path d="M42.1712 0.0312502C42.8845 -0.102083 43.2112 0.191247 43.1512 0.911247C42.6579 6.81791 40.2145 11.2346 35.8212 14.1612C33.6545 15.6012 31.3979 16.2446 29.0512 16.0912C28.5312 16.0512 28.3046 15.7746 28.3712 15.2612C29.5312 6.66125 34.1312 1.58458 42.1712 0.0312502Z" fill="#F81919"/>
</svg>
