<svg width="55" height="22" viewBox="0 0 55 22" fill="none" xmlns="http://www.w3.org/2000/svg">
<path d="M10.4105 4.26758C10.9158 4.26758 12.7239 4.3125 13.9031 6.03076C13.8021 6.10938 12.0052 7.12012 12.0052 9.38867C12.0052 12.0166 14.2962 12.9487 14.3636 12.9712C14.3523 13.0273 13.993 14.2402 13.1619 15.4868C12.4095 16.5649 11.6121 17.6543 10.4105 17.6543C9.20879 17.6543 8.89434 16.958 7.52422 16.958C6.16534 16.958 5.68243 17.6768 4.59307 17.6768C3.49249 17.6768 2.71758 16.666 1.85284 15.4419C0.830864 13.9707 -0.000190735 11.7134 -0.000190735 9.56836C-0.000190735 6.14307 2.23467 4.3125 4.43584 4.3125C5.59258 4.3125 6.56963 5.07617 7.29961 5.07617C7.9959 5.07617 9.07403 4.26758 10.4105 4.26758ZM9.79278 2.81885C9.19756 3.5376 8.18682 4.07666 7.38946 4.07666C7.29961 4.07666 7.20977 4.06543 7.15362 4.0542C7.14239 4.00928 7.11993 3.86328 7.11993 3.72852C7.11993 2.81885 7.59161 1.90918 8.08575 1.33643C8.72588 0.583984 9.80401 0.0336914 10.68 0C10.7024 0.101074 10.7137 0.224609 10.7137 0.348145C10.7137 1.25781 10.3318 2.15625 9.79278 2.81885ZM18.7781 1.26904H25.3142C28.5486 1.26904 30.761 3.48145 30.761 6.74951C30.761 9.96143 28.47 12.1626 25.1907 12.1626H21.6756V17.4746H18.7781V1.26904ZM21.6756 3.69482V9.75928H24.5393C26.6057 9.75928 27.8186 8.68115 27.8186 6.74951C27.8186 4.76172 26.6394 3.69482 24.5506 3.69482H21.6756ZM36.1975 15.4868C37.8821 15.4868 39.1399 14.3975 39.1399 12.9712V11.9941L36.3659 12.1738C34.8049 12.2749 34.0749 12.8364 34.0749 13.8359C34.0749 14.8691 34.9621 15.4868 36.1975 15.4868ZM35.3777 17.6768C33.008 17.6768 31.3122 16.2393 31.3122 13.9932C31.3122 11.7695 32.9856 10.4893 35.9729 10.3096L39.1399 10.1187V9.08545C39.1399 7.88379 38.3313 7.20996 36.8264 7.20996C35.5461 7.20996 34.6701 7.65918 34.4118 8.49023H31.7839C32.0085 6.32275 34.0412 4.94141 36.9612 4.94141C40.1169 4.94141 41.8913 6.47998 41.8913 9.08545V17.4746H39.2073V15.79H39.0163C38.3313 16.9805 36.9836 17.6768 35.3777 17.6768ZM44.9919 21.9331C44.8234 21.9331 44.071 21.9219 43.8913 21.8882V19.6084C44.0485 19.6421 44.4641 19.6533 44.655 19.6533C45.8342 19.6533 46.4968 19.2041 46.8561 18.0698L47.0021 17.5308L42.611 5.18848H45.6657L48.5407 14.7793H48.7316L51.5954 5.18848H54.5378L50.1017 17.8677C49.0573 20.9224 47.7434 21.9331 44.9919 21.9331Z" fill="white"/>
</svg>
