<svg width="14" height="12" viewBox="0 0 14 12" fill="none" xmlns="http://www.w3.org/2000/svg">
<path d="M5.59221 1.12716L0.728134 9.24736C0.627848 9.42103 0.574785 9.61793 0.574223 9.81848C0.573662 10.019 0.625622 10.2162 0.724934 10.3905C0.824246 10.5647 0.967448 10.7099 1.14029 10.8116C1.31314 10.9133 1.5096 10.968 1.71014 10.9702H11.4383C11.6388 10.968 11.8353 10.9133 12.0081 10.8116C12.181 10.7099 12.3242 10.5647 12.4235 10.3905C12.5228 10.2162 12.5748 10.019 12.5742 9.81848C12.5737 9.61793 12.5206 9.42103 12.4203 9.24736L7.55622 1.12716C7.45385 0.958382 7.3097 0.818841 7.13769 0.721998C6.96568 0.625156 6.77162 0.57428 6.57422 0.57428C6.37682 0.57428 6.18276 0.625156 6.01075 0.721998C5.83874 0.818841 5.69459 0.958382 5.59221 1.12716Z" stroke="#FF8200" stroke-width="1.14854" stroke-linecap="round" stroke-linejoin="round"/>
<path d="M6.69946 4.0899V6.33302" stroke="#FF8200" stroke-width="1.14854" stroke-linecap="round" stroke-linejoin="round"/>
<path d="M6.69946 8.57611H6.70521" stroke="#FF8200" stroke-width="1.14854" stroke-linecap="round" stroke-linejoin="round"/>
</svg>
