<svg width="32" height="32" viewBox="0 0 32 32" fill="none" xmlns="http://www.w3.org/2000/svg">
<path fill-rule="evenodd" clip-rule="evenodd" d="M16.3482 1.37958C16.9296 1.53679 17.3335 2.06434 17.3335 2.66671V12H25.3335C25.811 12 26.2519 12.2553 26.4896 12.6693C26.7275 13.0833 26.7258 13.5928 26.4852 14.0052L17.1519 30.0051C16.8483 30.5256 16.2336 30.7777 15.6522 30.6205C15.0707 30.4633 14.6668 29.9357 14.6668 29.3334V20.0001H6.66683C6.1894 20.0001 5.74843 19.7448 5.51064 19.3308C5.27286 18.9168 5.27456 18.4073 5.51512 17.9949L14.8484 1.99488C15.152 1.47456 15.7667 1.22238 16.3482 1.37958ZM8.98822 17.3334H16.0002C16.7366 17.3334 17.3335 17.9304 17.3335 18.6668V24.4014L23.0122 14.6668H16.0002C15.2638 14.6668 14.6668 14.0698 14.6668 13.3334V7.59861L8.98822 17.3334Z" fill="white"/>
</svg>
