<svg width="24" height="24" viewBox="0 0 24 24" fill="none" xmlns="http://www.w3.org/2000/svg">
<path d="M0 12C0 5.37258 5.37258 0 12 0C18.6274 0 24 5.37258 24 12C24 18.6274 18.6274 24 12 24C5.37258 24 0 18.6274 0 12Z" fill="#FF8200" fill-opacity="0.1"/>
<path d="M10.7995 7.07314L5.93541 15.1933C5.83512 15.367 5.78206 15.5639 5.7815 15.7645C5.78094 15.965 5.8329 16.1622 5.93221 16.3364C6.03152 16.5107 6.17472 16.6559 6.34757 16.7576C6.52041 16.8593 6.71688 16.914 6.91741 16.9162H16.6456C16.8461 16.914 17.0426 16.8593 17.2154 16.7576C17.3883 16.6559 17.5315 16.5107 17.6308 16.3364C17.7301 16.1622 17.7821 15.965 17.7815 15.7645C17.7809 15.5639 17.7279 15.367 17.6276 15.1933L12.7635 7.07314C12.6611 6.90437 12.517 6.76482 12.345 6.66798C12.173 6.57114 11.9789 6.52026 11.7815 6.52026C11.5841 6.52026 11.39 6.57114 11.218 6.66798C11.046 6.76482 10.9019 6.90437 10.7995 7.07314Z" stroke="#FF8200" stroke-width="1.14854" stroke-linecap="round" stroke-linejoin="round"/>
<path d="M11.9067 10.0359V12.279" stroke="#FF8200" stroke-width="1.14854" stroke-linecap="round" stroke-linejoin="round"/>
<path d="M11.9067 14.5222H11.9125" stroke="#FF8200" stroke-width="1.14854" stroke-linecap="round" stroke-linejoin="round"/>
</svg>
