<svg width="24" height="24" viewBox="0 0 24 24" fill="none" xmlns="http://www.w3.org/2000/svg">
<path d="M0 12C0 5.37258 5.37258 0 12 0C18.6274 0 24 5.37258 24 12C24 18.6274 18.6274 24 12 24C5.37258 24 0 18.6274 0 12Z" fill="#62A209" fill-opacity="0.1"/>
<path d="M17.6129 11.2756V11.8098C17.6122 13.0619 17.2067 14.2802 16.457 15.2831C15.7073 16.286 14.6535 17.0196 13.4528 17.3746C12.2521 17.7296 10.9687 17.687 9.79421 17.2531C8.61969 16.8192 7.6169 16.0172 6.9354 14.9668C6.2539 13.9164 5.9302 12.6738 6.01259 11.4244C6.09497 10.175 6.57902 8.98571 7.39255 8.03388C8.20608 7.08206 9.30549 6.41871 10.5268 6.14276C11.7482 5.86682 13.026 5.99307 14.1697 6.50268" stroke="#62A209" stroke-width="1.16129" stroke-linecap="round" stroke-linejoin="round"/>
<path d="M18 7.41943L12.1936 12.9088L10.4517 11.2636" stroke="#62A209" stroke-width="1.16129" stroke-linecap="round" stroke-linejoin="round"/>
</svg>
