<svg width="55" height="55" viewBox="0 0 55 55" fill="none" xmlns="http://www.w3.org/2000/svg">
<path d="M11.9167 2.37655e-05H43.0834C44.6492 -0.00310454 46.2002 0.302994 47.6474 0.900754C49.0946 1.49851 50.4095 2.37617 51.5167 3.48336C52.6239 4.59055 53.5015 5.90547 54.0993 7.35268C54.6971 8.79989 55.0032 10.3509 55 11.9167V43.0834C55.0032 44.6492 54.6971 46.2002 54.0993 47.6474C53.5015 49.0946 52.6239 50.4095 51.5167 51.5167C50.4095 52.6239 49.0946 53.5015 47.6474 54.0993C46.2002 54.6971 44.6492 55.0032 43.0834 55H11.9167C10.3509 55.0032 8.79989 54.6971 7.35268 54.0993C5.90547 53.5015 4.59055 52.6239 3.48336 51.5167C2.37617 50.4095 1.49851 49.0946 0.900754 47.6474C0.302994 46.2002 -0.00310454 44.6492 2.37655e-05 43.0834V11.9167C-0.00310636 10.3509 0.302991 8.79989 0.900751 7.35268C1.49851 5.90547 2.37617 4.59054 3.48335 3.48335C4.59054 2.37617 5.90547 1.49851 7.35268 0.900751C8.79989 0.302991 10.3509 -0.00310636 11.9167 2.37655e-05Z" fill="url(#paint0_linear_6030_281)"/>
<path d="M27.5 51.3334C40.6628 51.3334 51.3334 40.6628 51.3334 27.5C51.3334 14.3372 40.6628 3.66669 27.5 3.66669C14.3372 3.66669 3.66669 14.3372 3.66669 27.5C3.66669 40.6628 14.3372 51.3334 27.5 51.3334Z" fill="#2E2E2F"/>
<path fill-rule="evenodd" clip-rule="evenodd" d="M27.0417 14.6665H27.8209L28.1876 12.8331H28.5084L28.6459 14.7123C28.8775 14.7203 29.1078 14.751 29.3334 14.804L29.8834 13.0165L30.2042 13.0623L30.1126 14.9415C30.3469 14.981 30.5771 15.0424 30.8001 15.1248L31.5334 13.429L31.8084 13.5206L31.4876 15.354C31.7167 15.4456 31.9459 15.4915 32.1751 15.5831L33.0917 13.979L33.3667 14.1165L32.8626 15.904C33.0917 15.9956 33.2751 16.1331 33.5042 16.2248L34.6042 14.7123L34.8792 14.8498L34.1459 16.5915C34.3292 16.729 34.5584 16.8664 34.7417 17.004L36.0251 15.629L36.2542 15.8123L35.3376 17.4623C35.5209 17.5998 35.7042 17.7831 35.8876 17.9206L37.3084 16.729L37.5376 16.9581L36.4376 18.4706L36.9417 18.9748L38.5001 17.9665L38.6834 18.1956L37.4459 19.5706L37.8584 20.1206L39.5084 19.2956L39.6917 19.5706L38.2709 20.8081C38.4084 20.9915 38.5001 21.2206 38.6376 21.404L40.3792 20.7623L40.5167 21.0373L38.9584 22.0915L39.2334 22.779L41.0209 22.3665L41.1126 22.6415L39.5084 23.4665C39.6 23.6956 39.6459 23.9248 39.7376 24.154L41.5709 23.9248L41.6626 24.2456L39.9209 24.8873C39.9667 25.1165 40.0126 25.3456 40.0584 25.6206H41.9376L41.9834 25.9415L40.1959 26.3998C40.1959 26.629 40.2417 26.904 40.2417 27.1331L42.0751 27.3623V27.6831L40.2417 27.9123C40.2493 28.1424 40.2339 28.3727 40.1959 28.5998L41.9834 29.0123L41.9376 29.3331L40.1042 29.379L39.9667 30.0665L41.7084 30.7081L41.6626 30.9831L39.8292 30.7998C39.7834 31.0289 39.6917 31.2581 39.6459 31.4873L41.2959 32.3123L41.2042 32.5873L39.3709 32.1748L39.0959 32.8623L40.6542 33.9165L40.5167 34.1915L38.7292 33.5956C38.6376 33.779 38.5001 34.0081 38.4084 34.1915L39.8292 35.3831L39.6459 35.6581L37.9959 34.8331C37.8577 35.0425 37.7045 35.2417 37.5376 35.429L38.8209 36.7581L38.6376 36.9873L37.0792 35.979C36.9349 36.1691 36.7652 36.3388 36.5751 36.4831L37.6751 37.9956L37.4459 38.2248L35.9792 37.0331C35.8074 37.1992 35.6236 37.3524 35.4292 37.4915L36.3459 39.0956L36.1167 39.2789L34.8334 37.9498C34.6501 38.0873 34.4209 38.2248 34.2376 38.3623L34.9709 40.104L34.6959 40.2415L33.5501 38.7748C33.3457 38.8999 33.1311 39.0072 32.9084 39.0956L33.4584 40.8831L33.1834 41.0206L32.2209 39.4165C31.9991 39.5133 31.769 39.59 31.5334 39.6456L31.8542 41.479L31.5792 41.5706L30.8001 39.8748C30.5709 39.9206 30.3417 40.0123 30.1126 40.0581L30.2042 41.9373L29.8834 41.9831L29.3334 40.1956C29.1042 40.2414 28.8751 40.2415 28.6001 40.2873L28.5084 42.1665H28.1876L27.8209 40.3331H27.0417L26.7209 42.1665H26.5376L26.4001 40.2873C26.1535 40.2766 25.9083 40.2459 25.6667 40.1956L25.1167 41.9831L24.7959 41.9373L24.8876 40.0581C24.6532 40.0185 24.423 39.9572 24.2001 39.8748L23.4667 41.5706L23.1917 41.479L23.5126 39.6456C23.2834 39.554 23.0542 39.5081 22.8251 39.4165L21.8626 41.0206L21.5876 40.8831L22.0917 39.0956C21.8626 39.004 21.6792 38.8665 21.4501 38.7748L20.3501 40.2873L20.0751 40.1498L20.8084 38.4081C20.6251 38.2706 20.3959 38.1331 20.2126 37.9956L18.9292 39.3706L18.7001 39.1873L19.6167 37.5373C19.4334 37.3998 19.2501 37.2165 19.0667 37.079L17.6459 38.2706L17.4167 38.0415L18.5167 36.5289C18.3603 36.3496 18.1919 36.1812 18.0126 36.0248L16.4542 37.079L16.2709 36.8498L17.5542 35.4748C17.3905 35.2849 17.2375 35.0859 17.0959 34.879L15.4459 35.704L15.2626 35.429L16.6834 34.2373C16.5459 34.0539 16.4542 33.8248 16.3167 33.5956L14.5751 34.2373L14.4376 33.9623L15.9959 32.9081L15.7209 32.2206L13.9334 32.6331L13.8417 32.3581L15.4917 31.4873C15.4001 31.2581 15.3542 31.0289 15.2626 30.7998L13.4292 31.0289L13.3376 30.7081L15.0792 30.0665C15.0334 29.8373 14.9876 29.6081 14.9417 29.3331H13.1084L13.0626 29.0123L14.8501 28.554C14.8501 28.3248 14.8042 28.0956 14.8042 27.8206L12.9709 27.5915V27.2706L14.8042 27.0415C14.7966 26.7961 14.812 26.5506 14.8501 26.3081L13.0626 25.8956L13.1084 25.5748L14.9417 25.529L15.0792 24.8415L13.3376 24.1998L13.4292 23.9248L15.2626 24.1081C15.3084 23.879 15.4001 23.6498 15.4459 23.4206L13.7959 22.5956L13.8876 22.3206L15.6751 22.7331L15.9501 22.0456L14.3917 21.0373L14.5292 20.7623L16.2709 21.3581C16.4084 21.129 16.5001 20.9456 16.6376 20.7165L15.2167 19.5248L15.4001 19.2498L17.0501 20.0748C17.1876 19.8915 17.3251 19.6623 17.4626 19.479L16.1792 18.104L16.3626 17.8748L17.9209 18.8831C18.0763 18.6886 18.2447 18.5048 18.4251 18.3331L17.3251 16.8206L17.5542 16.5915L18.9751 17.7831C19.1469 17.617 19.3307 17.4638 19.5251 17.3248L18.6084 15.7206L18.8376 15.5373L20.1209 16.8665C20.3042 16.729 20.5334 16.5915 20.7167 16.454L19.9834 14.7581L20.2584 14.6206L21.4042 16.0873C21.6085 15.9622 21.8232 15.8549 22.0459 15.7665L21.5417 13.979L21.8167 13.8415L22.7792 15.4456C23.001 15.3488 23.2311 15.2721 23.4667 15.2165L23.1459 13.3831L23.4209 13.2915L24.2001 14.9873C24.4292 14.9415 24.6584 14.8498 24.8876 14.804L24.7959 12.9248L25.1167 12.879L25.6667 14.6665C25.8959 14.6206 26.1251 14.6206 26.4001 14.5748L26.4917 12.6956H26.8126L27.0417 14.6665ZM27.5001 17.1415C25.4604 17.1415 23.4666 17.7463 21.7707 18.8794C20.0749 20.0126 18.7531 21.6232 17.9725 23.5075C17.192 25.3919 16.9878 27.4654 17.3857 29.4658C17.7836 31.4663 18.7658 33.3038 20.208 34.746C21.6502 36.1882 23.4878 37.1704 25.4882 37.5683C27.4886 37.9662 29.5621 37.762 31.4465 36.9815C33.3308 36.2009 34.9414 34.8792 36.0746 33.1833C37.2077 31.4874 37.8126 29.4936 37.8126 27.454C37.8084 24.7202 36.7206 22.0995 34.7875 20.1665C32.8545 18.2334 30.2338 17.1456 27.5001 17.1415Z" fill="url(#paint1_linear_6030_281)"/>
<path fill-rule="evenodd" clip-rule="evenodd" d="M26.8125 8.25005H27.9125L28.4166 5.50005H28.875L29.0583 8.29588C29.425 8.34172 29.7916 8.38755 30.1125 8.43338L30.9375 5.72922L31.3958 5.82088L31.2583 8.66255C31.625 8.75422 31.9458 8.80005 32.2666 8.89172L33.4125 6.27922L33.8708 6.41672L33.4125 9.25838C33.7406 9.36047 34.0621 9.48293 34.375 9.62505L35.8416 7.10422L36.2541 7.28755L35.475 10.0834C35.7958 10.2209 36.1166 10.4042 36.3916 10.5417L38.1333 8.20422L38.5458 8.43338L37.4 11.1375C37.7007 11.3204 37.9914 11.5193 38.2708 11.7334L40.2875 9.57922L40.6541 9.85422L39.1875 12.4209C39.4625 12.65 39.7375 12.8792 39.9666 13.1084L42.2125 11.2292L42.5333 11.55L40.7916 13.9334C41.0208 14.1625 41.25 14.4375 41.4791 14.6667L43.9541 13.0625L44.2291 13.4292L42.2125 15.6292C42.426 15.8931 42.6249 16.1685 42.8083 16.4542L45.4666 15.125L45.7416 15.4917L43.4958 17.4625C43.6809 17.7426 43.8492 18.0334 44 18.3334L46.8416 17.325L47.0708 17.7375L44.5958 19.4334C44.7333 19.7542 44.8708 20.0292 45.0083 20.35L47.9416 19.6625L48.0791 20.075L45.4208 21.45L45.6958 22.4125L48.675 22.0917L48.7666 22.55L45.9708 23.6042C46.0166 23.925 46.1083 24.2459 46.1541 24.5667H49.1791L49.225 25.025L46.2916 25.7584C46.3308 26.1083 46.3461 26.4605 46.3375 26.8125L49.3166 27.1792V27.6375L46.3375 28.0042C46.3375 28.325 46.2916 28.6459 46.2916 28.9667L49.225 29.6542L49.1791 30.1125L46.1541 30.1584C46.1153 30.4982 46.054 30.835 45.9708 31.1667L48.7666 32.2209L48.675 32.6792L45.6958 32.3584L45.4208 33.3209L48.0791 34.65L47.9416 35.0625L45.0541 34.4209C44.9166 34.7417 44.7791 35.0625 44.6416 35.3834L47.1166 37.0334L46.9333 37.4459L44.1375 36.4834C43.9969 36.7887 43.8281 37.0803 43.6333 37.3542L45.8791 39.2792L45.65 39.6459L42.9916 38.3625C42.8083 38.6375 42.5791 38.9125 42.3958 39.1875L44.4125 41.3417L44.1375 41.7084L41.6625 40.1042C41.4333 40.3792 41.2041 40.6084 40.975 40.8834L42.7166 43.2209L42.3958 43.5417L40.15 41.7084C39.875 41.9375 39.6458 42.1667 39.3708 42.3959L40.7916 44.9167L40.425 45.1917L38.4083 43.1292C38.1333 43.3125 37.8583 43.5417 37.5375 43.725L38.6833 46.3375L38.2708 46.5667L36.5291 44.3209C36.2083 44.5042 35.8875 44.6417 35.5666 44.8251L36.3916 47.5751L35.9791 47.7584L34.5125 45.3292C34.1996 45.4713 33.8781 45.5938 33.55 45.6959L34.0541 48.4917L33.5958 48.6292L32.45 46.0625C32.1291 46.1542 31.7625 46.2459 31.3958 46.3375L31.5333 49.0875L31.075 49.1792L30.25 46.5667L29.15 46.7042L28.9666 49.4542L28.5083 49.5L28.0041 46.7959H26.8125L26.3083 49.5L25.85 49.4542L25.6666 46.7042C25.3 46.6584 24.9333 46.6584 24.5666 46.6125L23.7875 49.225L23.3291 49.1334L23.4666 46.4292C23.1 46.3376 22.7333 46.2917 22.3666 46.2001L21.2666 48.675L20.8083 48.5375L21.2208 45.8792C20.8626 45.7775 20.5106 45.6551 20.1666 45.5126L18.8375 47.8042L18.425 47.6209L19.1583 45.0542C18.809 44.914 18.4718 44.7453 18.15 44.55L16.5458 46.6584L16.1333 46.4292L17.1416 44C16.8208 43.8167 16.5 43.5875 16.1791 43.4042L14.3916 45.3292L14.025 45.0542L15.3083 42.7626C14.9875 42.5334 14.7125 42.3042 14.3916 42.0292L12.375 43.6792L12.0541 43.3584L13.5666 41.25L12.7416 40.425L10.5875 41.8459L10.2666 41.4792L12.0083 39.5542C11.7791 39.2334 11.55 38.9584 11.3208 38.6376L9.02914 39.7834L8.75414 39.4167L10.6791 37.7209C10.4637 37.395 10.2648 37.0585 10.0833 36.7125L7.65414 37.5834L7.4708 37.1709L9.57914 35.75C9.40694 35.3918 9.25395 35.0246 9.1208 34.65L6.6458 35.2001L6.5083 34.7875L8.75414 33.6417C8.61664 33.275 8.52497 32.9084 8.38747 32.4959L5.86664 32.7709L5.77497 32.3125L8.1583 31.4417C8.06664 31.075 8.0208 30.6625 7.92914 30.2959H5.36247L5.31664 29.8375L7.79164 29.1959C7.7458 28.8292 7.7458 28.4167 7.69997 28.05L5.17914 27.7292V27.2709L7.69997 26.95C7.69997 26.5375 7.7458 26.1709 7.7458 25.7584L5.2708 25.1625L5.31664 24.7042L7.88331 24.6584C7.92914 24.2917 8.0208 23.8792 8.06664 23.5125L5.6833 22.6417L5.77497 22.1834L8.2958 22.4584C8.38747 22.0917 8.52497 21.725 8.61664 21.3125L6.32497 20.1667L6.5083 19.7542L8.9833 20.3042C9.1208 19.9375 9.30414 19.5709 9.44164 19.25L7.28747 17.8292L7.4708 17.4167L9.89997 18.2875C10.0815 17.9416 10.2803 17.6051 10.4958 17.2792L8.52497 15.6292L8.75414 15.2625L11.0916 16.4084C11.3208 16.0875 11.55 15.7667 11.7791 15.4917L9.99164 13.5667L10.2666 13.2L12.4666 14.6209C12.7416 14.3459 12.9708 14.0709 13.2458 13.7959L11.6875 11.6875L12.0083 11.3667L14.0708 13.0167C14.3458 12.7875 14.6666 12.5125 14.9416 12.2834L13.6125 9.99171L13.9791 9.71672L15.8125 11.6417C16.1333 11.4125 16.4541 11.2292 16.775 11L15.7208 8.52505L16.1333 8.29588L17.7833 10.4042C18.1041 10.2209 18.4708 10.0834 18.7916 9.90005L18.0125 7.33338L18.425 7.15005L19.8 9.48755C20.144 9.34498 20.4959 9.22255 20.8541 9.12088L20.3958 6.41672L20.8541 6.27922L21.9541 8.75422C22.3004 8.65602 22.6525 8.57948 23.0083 8.52505L22.8708 5.77505L23.3291 5.68338L24.1541 8.29588L25.2541 8.15838L25.4375 5.40838L25.8958 5.36255L26.8125 8.25005ZM15.6291 39.7834C16.8666 40.9751 18.8833 40.4709 19.7541 38.9584L24.7041 30.25C25.1742 29.4063 25.4133 28.4534 25.3972 27.4877C25.3811 26.522 25.1104 25.5777 24.6125 24.75L19.525 16.1334C18.6541 14.6667 16.6375 14.1625 15.4 15.4C13.7702 16.9917 12.4794 18.8967 11.6051 21.0003C10.7308 23.1039 10.2911 25.3626 10.3125 27.6406C10.3339 29.9186 10.816 32.1686 11.7297 34.2554C12.6433 36.3422 13.9698 38.2226 15.6291 39.7834ZM26.1708 23.7875C26.6763 24.6245 27.3888 25.3172 28.2398 25.7989C29.0907 26.2806 30.0513 26.5349 31.0291 26.5375H41.0208C42.7625 26.5375 44.1833 25.0709 43.7708 23.375C43.2132 21.1471 42.2096 19.0553 40.8206 17.2263C39.4316 15.3972 37.6861 13.8688 35.6897 12.7335C33.6932 11.5982 31.4873 10.8795 29.2052 10.621C26.9231 10.3624 24.6123 10.5693 22.4125 11.2292C20.7625 11.7334 20.1666 13.7042 21.0375 15.2167L26.1708 23.7875ZM31.075 28.4167C30.1035 28.4198 29.1494 28.6748 28.3059 29.1568C27.4624 29.6388 26.7584 30.3313 26.2625 31.1667L21.3125 39.875C21.0955 40.2193 20.9608 40.6089 20.9189 41.0136C20.877 41.4183 20.929 41.8273 21.0709 42.2086C21.2128 42.59 21.4408 42.9335 21.7371 43.2124C22.0333 43.4913 22.3899 43.6981 22.7791 43.8167C24.9674 44.4244 27.2554 44.5871 29.5076 44.2954C31.7599 44.0036 33.9309 43.2633 35.8921 42.1182C37.8534 40.973 39.5652 39.4463 40.9263 37.6283C42.2874 35.8102 43.2702 33.7378 43.8166 31.5334C44.2291 29.8834 42.8083 28.3709 41.0666 28.3709L31.075 28.4167ZM27.2708 26.5834C27.0895 26.5834 26.9123 26.6371 26.7615 26.7379C26.6108 26.8386 26.4933 26.9818 26.4239 27.1493C26.3545 27.3168 26.3364 27.5011 26.3718 27.6789C26.4071 27.8567 26.4944 28.02 26.6226 28.1482C26.7508 28.2764 26.9142 28.3637 27.092 28.3991C27.2698 28.4345 27.4541 28.4163 27.6216 28.3469C27.7891 28.2776 27.9323 28.1601 28.033 28.0093C28.1337 27.8586 28.1875 27.6813 28.1875 27.5C28.1868 27.2572 28.09 27.0244 27.9182 26.8527C27.7464 26.6809 27.5137 26.5841 27.2708 26.5834Z" fill="url(#paint2_linear_6030_281)"/>
<defs>
<linearGradient id="paint0_linear_6030_281" x1="27.5" y1="55" x2="27.5" y2="2.6226e-05" gradientUnits="userSpaceOnUse">
<stop stop-color="#8E8E93"/>
<stop offset="1" stop-color="#E5E5EA"/>
</linearGradient>
<linearGradient id="paint1_linear_6030_281" x1="27.528" y1="12.8166" x2="27.528" y2="42.15" gradientUnits="userSpaceOnUse">
<stop stop-color="#B4B4B9"/>
<stop offset="1" stop-color="#B4B4B9"/>
</linearGradient>
<linearGradient id="paint2_linear_6030_281" x1="27.2552" y1="5.48022" x2="27.2552" y2="49.439" gradientUnits="userSpaceOnUse">
<stop stop-color="#DCDCE1"/>
<stop offset="1" stop-color="#98989D"/>
</linearGradient>
</defs>
</svg>
