<svg width="156" height="65" viewBox="0 0 156 65" fill="none" xmlns="http://www.w3.org/2000/svg">
<path d="M123.807 3.23267C125.552 3.86607 127.75 4.67975 130.007 5.35956C132.279 6.02323 134.347 6.45327 135.92 6.75136C137.481 7.04441 138.548 7.2045 138.547 7.1934C138.527 7.19845 138.106 6.24476 136.957 5.03433C135.418 3.41939 133.471 2.23661 131.316 1.60725C128.695 0.816721 125.972 0.939579 124.013 1.27392C122.039 1.60525 120.83 2.14805 120.829 2.13193C120.81 2.14199 122.081 2.59618 123.807 3.23267ZM143.179 10.7613C144.37 11.985 145.216 12.8943 145.25 12.9084C145.247 12.849 146.832 10.0545 144.465 6.11079C143.254 4.12482 141.104 2.46728 139.231 1.45217C137.361 0.4129 135.77 0.0151114 135.787 0C135.736 0.0382728 136.355 3.00811 139.059 6.27694C140.413 7.92749 141.975 9.50561 143.179 10.7613ZM149.615 21.8682C150.153 23.4674 150.548 24.6455 150.566 24.6628C150.593 24.6145 153.137 22.7172 152.76 18.1874C152.556 15.9043 151.457 13.5529 150.355 11.9013C149.26 10.2296 148.165 9.25674 148.182 9.24777C148.136 9.26592 147.17 12.1461 147.989 16.1593C148.397 18.1824 149.079 20.2407 149.615 21.8682ZM150.983 34.6407C150.86 36.3315 150.774 37.5763 150.783 37.5984C150.827 37.5681 153.877 36.8813 155.287 32.5772C155.988 30.4049 155.916 27.8038 155.588 25.8471C155.276 23.8732 154.704 22.5439 154.721 22.5429C154.678 22.5408 152.586 24.7523 151.728 28.7493C151.292 30.7634 151.12 32.9287 150.983 34.6407ZM150.279 41.8289C149.104 43.4936 148.099 45.4071 147.286 46.9166C146.497 48.4111 145.899 49.5108 145.899 49.535C145.952 49.525 149.059 50.1663 152.049 46.8159C153.548 45.115 154.483 42.7 154.934 40.7695C155.403 38.83 155.389 37.3738 155.407 37.3799C155.363 37.3597 152.604 38.5179 150.279 41.8289ZM143.637 53.1785C141.827 54.2016 140.011 55.5109 138.519 56.529C137.059 57.546 135.92 58.2751 135.914 58.2963C135.97 58.3165 138.689 60.2057 143.044 58.4374C145.237 57.529 147.155 55.7254 148.389 54.1543C149.644 52.5823 150.215 51.2439 150.232 51.258C150.193 51.2207 147.219 51.1372 143.637 53.1785ZM131.807 60.5823C129.467 60.7153 126.864 61.0788 124.688 61.3145C122.538 61.5653 120.819 61.6871 120.829 61.7021C120.842 61.7011 121.247 62.382 122.418 63.1725C123.574 63.9509 125.496 64.8402 128.275 64.9792C131.057 65.1382 133.937 64.3597 135.956 63.4836C138.002 62.6176 139.188 61.6538 139.206 61.675C139.168 61.6216 136.439 60.3044 131.807 60.5823ZM144.449 13.5257C144.435 13.5388 143.896 12.429 142.732 11.1762C141.592 9.92445 139.824 8.52972 137.838 7.97682C133.888 6.90227 131.543 9.05146 131.499 9.08061C131.499 9.09474 132.492 9.65662 133.776 10.4089C135.083 11.1591 136.681 12.1018 138.32 12.7563C141.564 14.0585 144.42 13.5601 144.449 13.5257ZM140.341 15.6778C140.339 15.695 140.873 16.5801 141.602 17.7594C142.352 18.9497 143.299 20.4372 144.457 21.692C146.749 24.1854 149.558 24.9126 149.592 24.8924C149.577 24.8984 149.54 23.6677 149.042 22.0606C148.561 20.4613 147.616 18.4864 146.173 17.1965C143.285 14.6506 140.389 15.6769 140.341 15.6778ZM149.662 28.9447C148.058 25.4341 145.06 25.1804 145.005 25.1602C145.054 25.2307 145.253 29.141 146.329 32.3405C147.46 35.5733 149.764 37.408 149.8 37.403C149.785 37.403 150.221 36.258 150.383 34.5802C150.559 32.9156 150.461 30.7171 149.662 28.9447ZM144.825 38.0707C144.47 39.4282 144.049 41.1462 143.932 42.8764C143.695 46.3073 145.038 48.9388 145.075 48.9489C145.061 48.9428 145.939 48.0798 146.759 46.6114C147.588 45.1614 148.359 43.107 148.308 41.1482C148.186 37.1965 145.443 35.7344 145.492 35.7423C145.483 35.7394 145.186 36.7243 144.825 38.0707ZM138.169 56.0335C139.648 55.0767 141.309 53.541 142.111 51.7394C143.683 48.1533 141.81 45.6921 141.801 45.6417C141.778 45.6517 141.116 46.4242 140.221 47.4887C139.318 48.5763 138.18 49.963 137.269 51.4765C135.453 54.4776 135.378 57.3951 135.418 57.4222C135.404 57.4091 136.695 57.0124 138.169 56.0335ZM124.613 60.7233C126.738 60.5371 129.313 59.9055 131.073 58.6478C134.538 56.1321 133.905 53.122 133.933 53.0718C133.891 53.0757 132.89 53.4897 131.475 54.0536C130.028 54.6407 128.15 55.3829 126.339 56.3194C122.739 58.1695 120.786 60.6699 120.829 60.7153C120.815 60.6972 122.488 60.9317 124.613 60.7233Z" fill="#3B8CF7"/>
<path d="M32.0212 3.23267C30.2765 3.86607 28.0787 4.67975 25.8215 5.35956C23.5492 6.02323 21.4813 6.45327 19.9087 6.75136C18.3472 7.04441 17.28 7.2045 17.281 7.1934C17.3011 7.19845 17.7219 6.24476 18.8717 5.03433C20.41 3.41939 22.3572 2.23661 24.5127 1.60725C27.1333 0.816721 29.8567 0.939579 31.8149 1.27392C33.7892 1.60525 34.9983 2.14805 34.9993 2.13193C35.0184 2.14199 33.7469 2.59618 32.0212 3.23267ZM12.6488 10.7613C11.4578 11.985 10.6121 12.8943 10.5778 12.9084C10.5809 12.849 8.99619 10.0545 11.3631 6.11079C12.5743 4.12482 14.7238 2.46728 16.5974 1.45217C18.467 0.4129 20.0587 0.0151114 20.0416 0C20.0919 0.0382728 19.4737 3.00811 16.7695 6.27694C15.4154 7.92749 13.8529 9.50561 12.6488 10.7613ZM6.21344 21.8682C5.67482 23.4674 5.28017 24.6455 5.26205 24.6628C5.23486 24.6145 2.69174 22.7172 3.06827 18.1874C3.27265 15.9043 4.37104 13.5529 5.47346 11.9013C6.56783 10.2296 7.66321 9.25674 7.6461 9.24777C7.69241 9.26592 8.65791 12.1461 7.8394 16.1593C7.43165 18.1824 6.74905 20.2407 6.21344 21.8682ZM4.84524 34.6407C4.96806 36.3315 5.05465 37.5763 5.04559 37.5984C5.00129 37.5681 1.95075 36.8813 0.541263 32.5772C-0.159456 30.4049 -0.0879858 27.8038 0.240224 25.8471C0.552326 23.8732 1.12418 22.5439 1.10707 22.5429C1.15036 22.5408 3.24244 24.7523 4.10022 28.7493C4.53615 30.7634 4.70832 32.9287 4.84524 34.6407ZM5.54898 41.8289C6.72389 43.4936 7.72966 45.4071 8.54213 46.9166C9.33144 48.4111 9.92948 49.5108 9.92948 49.535C9.87612 49.525 6.76919 50.1663 3.77905 46.8159C2.27996 45.115 1.34568 42.7 0.89464 40.7695C0.425481 38.83 0.439575 37.3738 0.421453 37.3799C0.464744 37.3597 3.22433 38.5179 5.54898 41.8289ZM12.1917 53.1785C14.0009 54.2016 15.8171 55.5109 17.3092 56.529C18.769 57.546 19.9087 58.2751 19.9147 58.2963C19.8583 58.3165 17.139 60.2057 12.7847 58.4374C10.5909 57.529 8.67301 55.7254 7.4397 54.1543C6.18425 52.5823 5.61341 51.2439 5.5963 51.258C5.63556 51.2207 8.60958 51.1372 12.1917 53.1785ZM24.0214 60.5823C26.3611 60.7153 28.9647 61.0788 31.1403 61.3145C33.2898 61.5653 35.0094 61.6871 34.9993 61.7021C34.9862 61.7011 34.5815 62.382 33.4106 63.1725C32.2538 63.9509 30.3319 64.8402 27.5532 64.9792C24.7714 65.1382 21.891 64.3597 19.8724 63.4836C17.8267 62.6176 16.6407 61.6538 16.6225 61.675C16.6598 61.6216 19.3892 60.3044 24.0214 60.5823ZM11.3792 13.5257C11.3933 13.5388 11.932 12.429 13.0958 11.1762C14.2365 9.92445 16.0044 8.52972 17.9898 7.97682C21.9404 6.90227 24.2851 9.05146 24.3294 9.08061C24.3294 9.09474 23.3358 9.65662 22.0521 10.4089C20.7453 11.1591 19.1476 12.1018 17.5085 12.7563C14.2647 14.0585 11.4084 13.5601 11.3792 13.5257ZM15.4869 15.6778C15.4889 15.695 14.9553 16.5801 14.2264 17.7594C13.4764 18.9497 12.529 20.4372 11.3712 21.692C9.07874 24.1854 6.26983 24.9126 6.23661 24.8924C6.25171 24.8984 6.28795 23.6677 6.7863 22.0606C7.26754 20.4613 8.21191 18.4864 9.65563 17.1965C12.5431 14.6506 15.4396 15.6769 15.4869 15.6778ZM6.16613 28.9447C7.76993 25.4341 10.7681 25.1804 10.8235 25.1602C10.7742 25.2307 10.5748 29.141 9.49958 32.3405C8.36796 35.5733 6.06445 37.408 6.02821 37.403C6.04331 37.403 5.60736 36.258 5.44527 34.5802C5.26908 32.9156 5.36675 30.7171 6.16613 28.9447ZM11.0037 38.0707C11.3581 39.4282 11.7789 41.1462 11.8967 42.8764C12.1333 46.3073 10.7903 48.9388 10.753 48.9489C10.7671 48.9428 9.8892 48.0798 9.06968 46.6114C8.2401 45.1614 7.4689 43.107 7.52025 41.1482C7.64207 37.1965 10.3855 35.7344 10.3362 35.7423C10.3453 35.7394 10.6423 36.7243 11.0037 38.0707ZM17.6595 56.0335C16.1806 55.0767 14.5194 53.541 13.717 51.7394C12.1454 48.1533 14.018 45.6921 14.0271 45.6417C14.0502 45.6517 14.7127 46.4242 15.6077 47.4887C16.5098 48.5763 17.6484 49.963 18.5596 51.4765C20.3748 54.4776 20.4503 57.3951 20.41 57.4222C20.4241 57.4091 19.1335 57.0124 17.6595 56.0335ZM31.2148 60.7233C29.0905 60.5371 26.5152 59.9055 24.7553 58.6478C21.29 56.1321 21.9232 53.122 21.8951 53.0718C21.9373 53.0757 22.9381 53.4897 24.3536 54.0536C25.8004 54.6407 27.678 55.3829 29.4892 56.3194C33.0894 58.1695 35.0426 60.6699 34.9993 60.7153C35.0134 60.6972 33.3401 60.9317 31.2148 60.7233Z" fill="#3B8CF7"/>
<path d="M47.0576 27V17.6177H43.6519V16.4312H51.7817V17.6177H48.376V27H47.0576Z" fill="#242428"/>
<path d="M52.5581 27V19.1045H53.8325V20.2764H53.9497C54.1011 19.8613 54.3574 19.5391 54.7187 19.3096C55.0801 19.0801 55.5269 18.9653 56.0591 18.9653C56.1811 18.9653 56.3008 18.9727 56.418 18.9873C56.54 18.9971 56.6328 19.0068 56.6963 19.0166V20.2544C56.5644 20.23 56.4351 20.2129 56.3081 20.2031C56.186 20.1885 56.0542 20.1812 55.9126 20.1812C55.5073 20.1812 55.1484 20.2617 54.8359 20.4229C54.5234 20.584 54.2769 20.8086 54.0962 21.0967C53.9204 21.3848 53.8325 21.7217 53.8325 22.1074V27H52.5581Z" fill="#242428"/>
<path d="M60.915 27.1392C60.3193 27.1392 59.8188 27.0269 59.4136 26.8022C59.0083 26.5728 58.7031 26.2407 58.498 25.8062C58.2978 25.3667 58.1978 24.8369 58.1978 24.2168V19.1045H59.4722V23.9092C59.4722 24.6172 59.6089 25.1445 59.8823 25.4912C60.1606 25.8379 60.6147 26.0112 61.2446 26.0112C61.5913 26.0112 61.8965 25.96 62.1602 25.8574C62.4287 25.7549 62.6533 25.6084 62.834 25.418C63.0146 25.2227 63.1489 24.9883 63.2368 24.7148C63.3296 24.4365 63.376 24.124 63.376 23.7773V19.1045H64.6504V27H63.376V25.8208H63.2588C63.1318 26.0991 62.9585 26.3384 62.7388 26.5386C62.519 26.7339 62.2554 26.8828 61.9478 26.9854C61.645 27.0879 61.3008 27.1392 60.915 27.1392Z" fill="#242428"/>
<path d="M69.7407 27.1392C69.1548 27.1392 68.6372 27.0513 68.188 26.8755C67.7388 26.6948 67.3774 26.4434 67.104 26.1211C66.8354 25.7988 66.6768 25.4204 66.6279 24.9858H67.9316C68.0391 25.313 68.249 25.5767 68.5615 25.7769C68.874 25.9771 69.2817 26.0771 69.7847 26.0771C70.1411 26.0771 70.4536 26.0259 70.7222 25.9233C70.9956 25.8159 71.2104 25.6719 71.3667 25.4912C71.5229 25.3057 71.6011 25.0933 71.6011 24.854V24.8394C71.6011 24.5708 71.4937 24.3438 71.2788 24.1582C71.064 23.9678 70.7124 23.814 70.2241 23.6968L69.001 23.4038C68.5078 23.2866 68.1025 23.1353 67.7852 22.9497C67.4678 22.7593 67.2334 22.5273 67.082 22.2539C66.9307 21.9756 66.855 21.6484 66.855 21.2725V21.2651C66.855 20.8257 66.9819 20.4326 67.2358 20.0859C67.4946 19.7393 67.8462 19.4658 68.2905 19.2656C68.7349 19.0654 69.2354 18.9653 69.792 18.9653C70.3438 18.9653 70.832 19.0532 71.2568 19.229C71.6865 19.3999 72.0308 19.644 72.2896 19.9614C72.5532 20.2788 72.7144 20.6523 72.7729 21.082H71.5205C71.4375 20.7695 71.2471 20.5156 70.9492 20.3203C70.6514 20.125 70.2632 20.0273 69.7847 20.0273C69.4722 20.0273 69.1938 20.0786 68.9497 20.1812C68.7056 20.2788 68.5127 20.4155 68.3711 20.5913C68.2295 20.7671 68.1587 20.9722 68.1587 21.2065V21.2212C68.1587 21.397 68.2051 21.5532 68.2979 21.6899C68.3906 21.8267 68.5347 21.9463 68.73 22.0488C68.9253 22.1514 69.1768 22.2417 69.4844 22.3198L70.7002 22.6128C71.4424 22.7935 71.9941 23.0522 72.3555 23.3892C72.7217 23.7261 72.9048 24.1777 72.9048 24.7441V24.7588C72.9048 25.2275 72.7656 25.6426 72.4873 26.0039C72.209 26.3604 71.8306 26.6387 71.3521 26.8389C70.8784 27.0391 70.3413 27.1392 69.7407 27.1392Z" fill="#242428"/>
<path d="M77.6143 27.0586C76.8037 27.0586 76.2153 26.895 75.8491 26.5679C75.4878 26.2407 75.3071 25.7012 75.3071 24.9492V20.1592H74.062V19.1045H75.3071V17.061H76.6255V19.1045H78.354V20.1592H76.6255V24.627C76.6255 25.0908 76.7134 25.4253 76.8892 25.6304C77.0649 25.8306 77.3579 25.9307 77.7681 25.9307C77.8804 25.9307 77.9756 25.9282 78.0537 25.9233C78.1367 25.9185 78.2368 25.9111 78.354 25.9014V26.9854C78.2319 27.0049 78.1099 27.022 77.9878 27.0366C77.8657 27.0513 77.7412 27.0586 77.6143 27.0586Z" fill="#242428"/>
<path d="M83.3784 27.1392C82.6265 27.1392 81.9795 26.9731 81.4375 26.6411C80.9004 26.3091 80.4854 25.8403 80.1924 25.2349C79.9043 24.6245 79.7603 23.9067 79.7603 23.0815V23.0742C79.7603 22.2588 79.9043 21.5435 80.1924 20.9282C80.4854 20.313 80.8979 19.832 81.4302 19.4854C81.9624 19.1387 82.585 18.9653 83.2979 18.9653C84.0156 18.9653 84.6309 19.1313 85.1436 19.4634C85.6611 19.7954 86.0566 20.2593 86.3301 20.855C86.6084 21.4458 86.7476 22.1343 86.7476 22.9204V23.4185H80.4194V22.4004H86.0957L85.4658 23.3306V22.8252C85.4658 22.2051 85.373 21.6948 85.1875 21.2944C85.002 20.894 84.7456 20.5962 84.4185 20.4009C84.0913 20.2007 83.7153 20.1006 83.2905 20.1006C82.8657 20.1006 82.4849 20.2056 82.1479 20.4155C81.8159 20.6206 81.5522 20.9258 81.3569 21.3311C81.1616 21.7363 81.064 22.2344 81.064 22.8252V23.3306C81.064 23.8921 81.1592 24.373 81.3496 24.7734C81.54 25.1689 81.811 25.4741 82.1626 25.689C82.5142 25.8989 82.9292 26.0039 83.4077 26.0039C83.7642 26.0039 84.0742 25.9551 84.3379 25.8574C84.6016 25.7598 84.8188 25.6353 84.9897 25.4839C85.1606 25.3325 85.2803 25.1787 85.3486 25.0225L85.3779 24.9565H86.6523L86.6377 25.0151C86.5693 25.2837 86.4473 25.5449 86.2715 25.7988C86.1006 26.0479 85.8784 26.2749 85.605 26.48C85.3315 26.6802 85.0068 26.8413 84.6309 26.9634C84.2598 27.0806 83.8423 27.1392 83.3784 27.1392Z" fill="#242428"/>
<path d="M91.6401 27.1392C90.9761 27.1392 90.395 26.9707 89.897 26.6338C89.3989 26.2969 89.0132 25.8232 88.7397 25.2129C88.4663 24.5977 88.3296 23.8799 88.3296 23.0596V23.0449C88.3296 22.2197 88.4663 21.502 88.7397 20.8916C89.0132 20.2812 89.3965 19.8076 89.8896 19.4707C90.3877 19.1338 90.9712 18.9653 91.6401 18.9653C92.0015 18.9653 92.3408 19.0239 92.6582 19.1411C92.9805 19.2534 93.2661 19.4121 93.5151 19.6172C93.7642 19.8223 93.9595 20.0664 94.1011 20.3496H94.2183V15.9697H95.4927V27H94.2183V25.7402H94.1011C93.9399 26.0332 93.7373 26.2847 93.4932 26.4946C93.249 26.6997 92.9707 26.8584 92.6582 26.9707C92.3457 27.083 92.0063 27.1392 91.6401 27.1392ZM91.9331 26.0112C92.4116 26.0112 92.8242 25.8916 93.1709 25.6523C93.5176 25.4131 93.7837 25.0737 93.9692 24.6343C94.1548 24.1899 94.2476 23.665 94.2476 23.0596V23.0449C94.2476 22.4346 94.1548 21.9097 93.9692 21.4702C93.7837 21.0308 93.5176 20.6914 93.1709 20.4521C92.8242 20.2129 92.4116 20.0933 91.9331 20.0933C91.4546 20.0933 91.042 20.2129 90.6953 20.4521C90.3535 20.6865 90.0898 21.0234 89.9043 21.4629C89.7236 21.9023 89.6333 22.4297 89.6333 23.0449V23.0596C89.6333 23.6699 89.7236 24.1973 89.9043 24.6416C90.0898 25.0811 90.3535 25.4204 90.6953 25.6597C91.042 25.894 91.4546 26.0112 91.9331 26.0112Z" fill="#242428"/>
<path d="M106.083 27.1392C105.717 27.1392 105.378 27.083 105.065 26.9707C104.753 26.8584 104.475 26.6997 104.23 26.4946C103.986 26.2847 103.784 26.0332 103.623 25.7402H103.505V27H102.231V15.9697H103.505V20.3496H103.623C103.769 20.0664 103.964 19.8223 104.208 19.6172C104.458 19.4121 104.741 19.2534 105.058 19.1411C105.38 19.0239 105.722 18.9653 106.083 18.9653C106.752 18.9653 107.333 19.1338 107.827 19.4707C108.325 19.8076 108.71 20.2812 108.984 20.8916C109.257 21.502 109.394 22.2197 109.394 23.0449V23.0596C109.394 23.8799 109.257 24.5977 108.984 25.2129C108.71 25.8232 108.325 26.2969 107.827 26.6338C107.333 26.9707 106.752 27.1392 106.083 27.1392ZM105.791 26.0112C106.274 26.0112 106.687 25.894 107.028 25.6597C107.37 25.4204 107.631 25.0811 107.812 24.6416C107.998 24.1973 108.09 23.6699 108.09 23.0596V23.0449C108.09 22.4297 107.998 21.9023 107.812 21.4629C107.631 21.0234 107.37 20.6865 107.028 20.4521C106.687 20.2129 106.274 20.0933 105.791 20.0933C105.312 20.0933 104.899 20.2129 104.553 20.4521C104.206 20.6914 103.94 21.0308 103.754 21.4702C103.569 21.9097 103.476 22.4346 103.476 23.0449V23.0596C103.476 23.665 103.569 24.1899 103.754 24.6343C103.94 25.0737 104.206 25.4131 104.553 25.6523C104.899 25.8916 105.312 26.0112 105.791 26.0112Z" fill="#242428"/>
<path d="M111.752 29.7686C111.669 29.7686 111.577 29.7637 111.474 29.7539C111.372 29.749 111.276 29.7393 111.188 29.7246V28.6772C111.267 28.6919 111.352 28.7017 111.445 28.7065C111.538 28.7114 111.628 28.7139 111.716 28.7139C112.077 28.7139 112.373 28.6211 112.602 28.4355C112.836 28.25 113.024 27.9302 113.166 27.4761L113.312 27.0073L110.39 19.1045H111.752L114.184 26.3994L113.679 25.6011H114.279L113.774 26.3994L116.198 19.1045H117.539L114.455 27.4834C114.24 28.0742 114.013 28.5356 113.774 28.8677C113.535 29.1997 113.254 29.4316 112.932 29.5635C112.614 29.7002 112.221 29.7686 111.752 29.7686Z" fill="#242428"/>
<path d="M39.1035 45.271C38.3516 45.271 37.6924 45.1343 37.126 44.8608C36.5596 44.5874 36.1103 44.2163 35.7783 43.7476C35.4512 43.2739 35.2656 42.7441 35.2217 42.1582L35.2144 42.0557H37.2212L37.2358 42.1069C37.2895 42.3657 37.3994 42.6025 37.5654 42.8174C37.7363 43.0273 37.9536 43.1958 38.2173 43.3228C38.481 43.4448 38.7788 43.5059 39.1108 43.5059C39.4917 43.5059 39.8262 43.4229 40.1143 43.2568C40.4023 43.0908 40.6269 42.8638 40.7881 42.5757C40.9541 42.2827 41.0371 41.9482 41.0371 41.5723V41.5576C41.0371 41.1816 40.9541 40.8496 40.7881 40.5615C40.6269 40.2734 40.4023 40.0488 40.1143 39.8877C39.8262 39.7266 39.4941 39.646 39.1182 39.646C38.8545 39.646 38.6103 39.6851 38.3857 39.7632C38.1611 39.8364 37.9585 39.9487 37.7778 40.1001C37.6802 40.1782 37.5874 40.2686 37.4995 40.3711C37.4165 40.4688 37.3457 40.5737 37.2871 40.686H35.3901L35.8809 34.4312H42.4873V36.189H37.602L37.3384 39.1992H37.4702C37.6118 38.96 37.7925 38.7549 38.0122 38.584C38.2368 38.4131 38.4932 38.2812 38.7812 38.1885C39.0742 38.0957 39.3892 38.0493 39.7261 38.0493C40.3853 38.0493 40.9687 38.1982 41.4766 38.4961C41.9893 38.7939 42.3896 39.2041 42.6777 39.7266C42.9707 40.2441 43.1172 40.8398 43.1172 41.5137V41.5283C43.1172 42.2705 42.9463 42.9224 42.6045 43.4839C42.2676 44.0454 41.7964 44.4849 41.1909 44.8022C40.5903 45.1147 39.8945 45.271 39.1035 45.271Z" fill="#242428"/>
<path d="M49.123 45.271C48.2539 45.271 47.5044 45.0464 46.8745 44.5972C46.2495 44.1431 45.7686 43.501 45.4316 42.6709C45.0947 41.8408 44.9263 40.8569 44.9263 39.7192V39.7046C44.9263 38.562 45.0947 37.5781 45.4316 36.7529C45.7686 35.9229 46.2495 35.2832 46.8745 34.834C47.5044 34.3848 48.2539 34.1602 49.123 34.1602C49.9971 34.1602 50.7466 34.3848 51.3716 34.834C51.9966 35.2832 52.4775 35.9229 52.8144 36.7529C53.1514 37.5781 53.3198 38.562 53.3198 39.7046V39.7192C53.3198 40.8569 53.1514 41.8408 52.8144 42.6709C52.4775 43.501 51.9966 44.1431 51.3716 44.5972C50.7466 45.0464 49.9971 45.271 49.123 45.271ZM49.123 43.5205C49.543 43.5205 49.897 43.3691 50.1851 43.0664C50.478 42.7637 50.7002 42.3291 50.8516 41.7627C51.0078 41.1963 51.0859 40.5151 51.0859 39.7192V39.7046C51.0859 38.9038 51.0078 38.2227 50.8516 37.6611C50.7002 37.0947 50.478 36.6626 50.1851 36.3647C49.897 36.062 49.543 35.9106 49.123 35.9106C48.708 35.9106 48.354 36.062 48.061 36.3647C47.7729 36.6626 47.5508 37.0947 47.3945 37.6611C47.2432 38.2227 47.1675 38.9038 47.1675 39.7046V39.7192C47.1675 40.5151 47.2432 41.1963 47.3945 41.7627C47.5508 42.3291 47.7729 42.7637 48.061 43.0664C48.354 43.3691 48.708 43.5205 49.123 43.5205Z" fill="#242428"/>
<path d="M59.3916 45.271C58.5225 45.271 57.7729 45.0464 57.1431 44.5972C56.5181 44.1431 56.0371 43.501 55.7002 42.6709C55.3633 41.8408 55.1948 40.8569 55.1948 39.7192V39.7046C55.1948 38.562 55.3633 37.5781 55.7002 36.7529C56.0371 35.9229 56.5181 35.2832 57.1431 34.834C57.7729 34.3848 58.5225 34.1602 59.3916 34.1602C60.2656 34.1602 61.0151 34.3848 61.6401 34.834C62.2651 35.2832 62.7461 35.9229 63.083 36.7529C63.4199 37.5781 63.5884 38.562 63.5884 39.7046V39.7192C63.5884 40.8569 63.4199 41.8408 63.083 42.6709C62.7461 43.501 62.2651 44.1431 61.6401 44.5972C61.0151 45.0464 60.2656 45.271 59.3916 45.271ZM59.3916 43.5205C59.8115 43.5205 60.1655 43.3691 60.4536 43.0664C60.7466 42.7637 60.9687 42.3291 61.1201 41.7627C61.2764 41.1963 61.3545 40.5151 61.3545 39.7192V39.7046C61.3545 38.9038 61.2764 38.2227 61.1201 37.6611C60.9687 37.0947 60.7466 36.6626 60.4536 36.3647C60.1655 36.062 59.8115 35.9106 59.3916 35.9106C58.9766 35.9106 58.6226 36.062 58.3296 36.3647C58.0415 36.6626 57.8193 37.0947 57.6631 37.6611C57.5117 38.2227 57.436 38.9038 57.436 39.7046V39.7192C57.436 40.5151 57.5117 41.1963 57.6631 41.7627C57.8193 42.3291 58.0415 42.7637 58.3296 43.0664C58.6226 43.3691 58.9766 43.5205 59.3916 43.5205Z" fill="#242428"/>
<path d="M67.8804 41.9385L67.7998 39.1772H68.1514L72.0552 34.4312H74.5161L70.5244 39.2285L69.2061 40.3418L67.8804 41.9385ZM65.8076 45V34.4312H68.0195V45H65.8076ZM72.1357 45L68.9497 40.3271L70.5391 38.877L74.7871 45H72.1357Z" fill="#242428"/>
<path d="M74.9849 41.6968V39.7705H83.2466V41.6968H74.9849ZM78.1489 44.7656V36.7017H80.0752V44.7656H78.1489Z" fill="#242428"/>
<path d="M92.2041 45.1392C91.6084 45.1392 91.1079 45.0269 90.7026 44.8022C90.2974 44.5728 89.9922 44.2407 89.7871 43.8062C89.5869 43.3667 89.4868 42.8369 89.4868 42.2168V37.1045H90.7612V41.9092C90.7612 42.6172 90.8979 43.1445 91.1714 43.4912C91.4497 43.8379 91.9038 44.0112 92.5337 44.0112C92.8804 44.0112 93.1855 43.96 93.4492 43.8574C93.7178 43.7549 93.9424 43.6084 94.123 43.418C94.3037 43.2227 94.438 42.9883 94.5259 42.7148C94.6187 42.4365 94.665 42.124 94.665 41.7773V37.1045H95.9395V45H94.665V43.8208H94.5479C94.4209 44.0991 94.2476 44.3384 94.0278 44.5386C93.8081 44.7339 93.5444 44.8828 93.2368 44.9854C92.9341 45.0879 92.5898 45.1392 92.2041 45.1392Z" fill="#242428"/>
<path d="M101.03 45.1392C100.444 45.1392 99.9263 45.0513 99.4771 44.8755C99.0278 44.6948 98.6665 44.4434 98.3931 44.1211C98.1245 43.7988 97.9658 43.4204 97.917 42.9858H99.2207C99.3281 43.313 99.5381 43.5767 99.8506 43.7769C100.163 43.9771 100.571 44.0771 101.074 44.0771C101.43 44.0771 101.743 44.0259 102.011 43.9233C102.285 43.8159 102.5 43.6719 102.656 43.4912C102.812 43.3057 102.89 43.0933 102.89 42.854V42.8394C102.89 42.5708 102.783 42.3438 102.568 42.1582C102.353 41.9678 102.001 41.814 101.513 41.6968L100.29 41.4038C99.7969 41.2866 99.3916 41.1353 99.0742 40.9497C98.7568 40.7593 98.5225 40.5273 98.3711 40.2539C98.2197 39.9756 98.144 39.6484 98.144 39.2725V39.2651C98.144 38.8257 98.271 38.4326 98.5249 38.0859C98.7837 37.7393 99.1353 37.4658 99.5796 37.2656C100.024 37.0654 100.524 36.9653 101.081 36.9653C101.633 36.9653 102.121 37.0532 102.546 37.229C102.976 37.3999 103.32 37.644 103.579 37.9614C103.842 38.2788 104.003 38.6523 104.062 39.082H102.81C102.727 38.7695 102.536 38.5156 102.238 38.3203C101.94 38.125 101.552 38.0273 101.074 38.0273C100.761 38.0273 100.483 38.0786 100.239 38.1812C99.9946 38.2788 99.8018 38.4155 99.6602 38.5913C99.5186 38.7671 99.4478 38.9722 99.4478 39.2065V39.2212C99.4478 39.397 99.4941 39.5532 99.5869 39.6899C99.6797 39.8267 99.8237 39.9463 100.019 40.0488C100.214 40.1514 100.466 40.2417 100.773 40.3198L101.989 40.6128C102.731 40.7935 103.283 41.0522 103.645 41.3892C104.011 41.7261 104.194 42.1777 104.194 42.7441V42.7588C104.194 43.2275 104.055 43.6426 103.776 44.0039C103.498 44.3604 103.12 44.6387 102.641 44.8389C102.167 45.0391 101.63 45.1392 101.03 45.1392Z" fill="#242428"/>
<path d="M109.394 45.1392C108.642 45.1392 107.995 44.9731 107.453 44.6411C106.916 44.3091 106.501 43.8403 106.208 43.2349C105.92 42.6245 105.776 41.9067 105.776 41.0815V41.0742C105.776 40.2588 105.92 39.5435 106.208 38.9282C106.501 38.313 106.914 37.832 107.446 37.4854C107.978 37.1387 108.601 36.9653 109.313 36.9653C110.031 36.9653 110.646 37.1313 111.159 37.4634C111.677 37.7954 112.072 38.2593 112.346 38.855C112.624 39.4458 112.763 40.1343 112.763 40.9204V41.4185H106.435V40.4004H112.111L111.481 41.3306V40.8252C111.481 40.2051 111.389 39.6948 111.203 39.2944C111.018 38.894 110.761 38.5962 110.434 38.4009C110.107 38.2007 109.731 38.1006 109.306 38.1006C108.881 38.1006 108.5 38.2056 108.164 38.4155C107.832 38.6206 107.568 38.9258 107.373 39.3311C107.177 39.7363 107.08 40.2344 107.08 40.8252V41.3306C107.08 41.8921 107.175 42.373 107.365 42.7734C107.556 43.1689 107.827 43.4741 108.178 43.689C108.53 43.8989 108.945 44.0039 109.423 44.0039C109.78 44.0039 110.09 43.9551 110.354 43.8574C110.617 43.7598 110.834 43.6353 111.005 43.4839C111.176 43.3325 111.296 43.1787 111.364 43.0225L111.394 42.9565H112.668L112.653 43.0151C112.585 43.2837 112.463 43.5449 112.287 43.7988C112.116 44.0479 111.894 44.2749 111.621 44.48C111.347 44.6802 111.022 44.8413 110.646 44.9634C110.275 45.0806 109.858 45.1392 109.394 45.1392Z" fill="#242428"/>
<path d="M114.741 45V37.1045H116.015V38.2764H116.132C116.284 37.8613 116.54 37.5391 116.901 37.3096C117.263 37.0801 117.709 36.9653 118.242 36.9653C118.364 36.9653 118.483 36.9727 118.601 36.9873C118.723 36.9971 118.815 37.0068 118.879 37.0166V38.2544C118.747 38.23 118.618 38.2129 118.491 38.2031C118.369 38.1885 118.237 38.1812 118.095 38.1812C117.69 38.1812 117.331 38.2617 117.019 38.4229C116.706 38.584 116.459 38.8086 116.279 39.0967C116.103 39.3848 116.015 39.7217 116.015 40.1074V45H114.741Z" fill="#242428"/>
<path d="M123.017 45.1392C122.431 45.1392 121.914 45.0513 121.464 44.8755C121.015 44.6948 120.654 44.4434 120.38 44.1211C120.112 43.7988 119.953 43.4204 119.904 42.9858H121.208C121.315 43.313 121.525 43.5767 121.838 43.7769C122.15 43.9771 122.558 44.0771 123.061 44.0771C123.417 44.0771 123.73 44.0259 123.999 43.9233C124.272 43.8159 124.487 43.6719 124.643 43.4912C124.799 43.3057 124.877 43.0933 124.877 42.854V42.8394C124.877 42.5708 124.77 42.3438 124.555 42.1582C124.34 41.9678 123.989 41.814 123.5 41.6968L122.277 41.4038C121.784 41.2866 121.379 41.1353 121.062 40.9497C120.744 40.7593 120.51 40.5273 120.358 40.2539C120.207 39.9756 120.131 39.6484 120.131 39.2725V39.2651C120.131 38.8257 120.258 38.4326 120.512 38.0859C120.771 37.7393 121.123 37.4658 121.567 37.2656C122.011 37.0654 122.512 36.9653 123.068 36.9653C123.62 36.9653 124.108 37.0532 124.533 37.229C124.963 37.3999 125.307 37.644 125.566 37.9614C125.83 38.2788 125.991 38.6523 126.049 39.082H124.797C124.714 38.7695 124.523 38.5156 124.226 38.3203C123.928 38.125 123.54 38.0273 123.061 38.0273C122.749 38.0273 122.47 38.0786 122.226 38.1812C121.982 38.2788 121.789 38.4155 121.647 38.5913C121.506 38.7671 121.435 38.9722 121.435 39.2065V39.2212C121.435 39.397 121.481 39.5532 121.574 39.6899C121.667 39.8267 121.811 39.9463 122.006 40.0488C122.202 40.1514 122.453 40.2417 122.761 40.3198L123.977 40.6128C124.719 40.7935 125.271 41.0522 125.632 41.3892C125.998 41.7261 126.181 42.1777 126.181 42.7441V42.7588C126.181 43.2275 126.042 43.6426 125.764 44.0039C125.485 44.3604 125.107 44.6387 124.628 44.8389C124.155 45.0391 123.618 45.1392 123.017 45.1392Z" fill="#242428"/>
</svg>
